<svg xmlns="http://www.w3.org/2000/svg" viewBox="0 11.579999923706055 32.900001525878906 37.349998474121094" data-asc="0.96875" width="32.900001525878906" height="37.349998474121094"><defs/><g fill="#000000"><g transform="translate(0, 0)"><path d="M24.75 23.83Q24.38 22.53 23.70 21.53Q23.03 20.53 22.06 19.82Q21.09 19.12 19.86 18.75Q18.63 18.38 17.13 18.38Q14.35 18.38 12.24 19.76Q10.14 21.15 8.97 23.78Q7.79 26.42 7.79 30.22Q7.79 34.02 8.95 36.68Q10.10 39.35 12.22 40.74Q14.33 42.13 17.21 42.13Q19.82 42.13 21.67 41.20Q23.53 40.27 24.51 38.57Q25.50 36.86 25.50 34.53L27.06 34.77L17.68 34.77L17.68 28.98L32.90 28.98L32.90 33.56Q32.90 38.35 30.88 41.79Q28.85 45.22 25.30 47.08Q21.75 48.93 17.17 48.93Q12.06 48.93 8.19 46.67Q4.31 44.41 2.16 40.23Q0 36.04 0 30.29Q0 25.87 1.29 22.40Q2.57 18.93 4.90 16.51Q7.23 14.10 10.32 12.84Q13.41 11.58 17.01 11.58Q20.10 11.58 22.76 12.47Q25.43 13.37 27.49 15.00Q29.56 16.64 30.88 18.88Q32.19 21.13 32.56 23.83L24.75 23.83Z"/></g></g></svg>